<?xml version="1.0" standalone="no"?>
<!DOCTYPE svg PUBLIC "-//W3C//DTD SVG 20010904//EN"
 "http://www.w3.org/TR/2001/REC-SVG-20010904/DTD/svg10.dtd">
<svg version="1.0" xmlns="http://www.w3.org/2000/svg"
 width="260.000000pt" height="260.000000pt" viewBox="0 0 260.000000 260.000000"
 preserveAspectRatio="xMidYMid meet">
<metadata>
Created by potrace 1.11, written by Peter Selinger 2001-2013
</metadata>
<g transform="translate(0.000000,260.000000) scale(0.100000,-0.100000)"
fill="#000000" stroke="none">
<path d="M1180 2140 c-263 -65 -491 -265 -599 -524 -44 -106 -61 -199 -61
-336 0 -278 84 -498 255 -665 137 -135 314 -209 530 -222 166 -9 355 27 490
94 69 35 185 113 185 124 0 6 -32 77 -71 159 -90 188 -93 190 -221 130 -108
-50 -169 -63 -278 -58 -73 3 -98 9 -153 36 -141 70 -227 230 -227 422 0 237
132 401 343 426 78 9 161 -10 262 -60 90 -45 130 -51 154 -22 14 17 181 316
181 324 0 11 -109 78 -191 117 -42 20 -119 45 -170 55 -126 26 -324 26 -429 0z"/>
</g>
</svg>
